<?xml version="1.0" standalone="no"?>
<!DOCTYPE svg PUBLIC "-//W3C//DTD SVG 20010904//EN"
 "http://www.w3.org/TR/2001/REC-SVG-20010904/DTD/svg10.dtd">
<svg version="1.0" xmlns="http://www.w3.org/2000/svg"
 width="72.000000pt" height="72.000000pt" viewBox="0 0 72.000000 72.000000"
 preserveAspectRatio="xMidYMid meet">

<g transform="translate(0.000000,72.000000) scale(0.100000,-0.100000)"
fill="#000000" stroke="none">
<path d="M286 547 c-31 -96 -56 -177 -56 -180 0 -4 9 -7 19 -7 15 0 24 13 37
55 l18 55 57 0 58 0 17 -55 c15 -46 21 -55 42 -55 18 0 22 4 18 18 -81 253
-114 337 -134 340 -19 3 -26 -13 -76 -171z m101 33 l20 -70 -43 0 c-24 0 -44
3 -44 6 0 17 35 134 40 134 3 0 15 -31 27 -70z"/>
<path d="M143 518 c-109 -115 -110 -294 -3 -411 151 -165 410 -123 503 82 16
34 22 66 22 121 0 85 -21 142 -75 203 -30 35 -34 36 -50 22 -16 -15 -16 -18
13 -48 72 -77 89 -199 41 -295 -97 -195 -382 -185 -471 17 -9 20 -16 64 -16
101 -1 71 23 131 71 183 23 24 24 29 11 42 -13 14 -18 12 -46 -17z"/>
</g>
</svg>
